<svg width="1290" height="2796" viewBox="0 0 1290 2796" fill="none" xmlns="http://www.w3.org/2000/svg">
  <defs>
    <linearGradient id="bg" x1="120" y1="80" x2="1200" y2="2800" gradientUnits="userSpaceOnUse">
      <stop stop-color="#FAFBFD"/>
      <stop offset="1" stop-color="#EEF1F6"/>
    </linearGradient>
    <linearGradient id="hero" x1="120" y1="320" x2="1170" y2="980" gradientUnits="userSpaceOnUse">
      <stop stop-color="#0F1116"/>
      <stop offset="1" stop-color="#2B3340"/>
    </linearGradient>
  </defs>
  <rect width="1290" height="2796" rx="96" fill="url(#bg)"/>
  <rect x="35" y="35" width="1220" height="2726" rx="82" fill="none" stroke="#D7DCE5" stroke-width="10"/>
  <rect x="555" y="110" width="180" height="36" rx="18" fill="#111214"/>
  <text x="120" y="150" fill="#0F1115" font-size="42" font-family="-apple-system, BlinkMacSystemFont, 'SF Pro Display', sans-serif" font-weight="600">9:41</text>
  <text x="1050" y="150" fill="#0F1115" font-size="34" font-family="-apple-system, BlinkMacSystemFont, 'SF Pro Text', sans-serif" font-weight="600">5G   96%</text>

  <text x="120" y="290" fill="#7A8392" font-size="32" font-family="-apple-system, BlinkMacSystemFont, 'SF Pro Text', sans-serif">早上好，JW 浦东门店</text>
  <text x="120" y="380" fill="#101216" font-size="82" font-family="-apple-system, BlinkMacSystemFont, 'SF Pro Display', sans-serif" font-weight="700">工作台</text>
  <rect x="120" y="450" width="1050" height="420" rx="54" fill="url(#hero)"/>
  <text x="178" y="560" fill="#B9C4D4" font-size="30" font-family="-apple-system, BlinkMacSystemFont, 'SF Pro Text', sans-serif">今日概览</text>
  <text x="178" y="658" fill="#FFFFFF" font-size="76" font-family="-apple-system, BlinkMacSystemFont, 'SF Pro Display', sans-serif" font-weight="700">门店运营处于稳定状态</text>
  <text x="178" y="736" fill="#DCE3EC" font-size="34" font-family="-apple-system, BlinkMacSystemFont, 'SF Pro Text', sans-serif">采购、库存、记账与通知都在同一界面快速触达</text>

  <rect x="178" y="782" width="240" height="56" rx="28" fill="#FFFFFF" fill-opacity="0.12"/>
  <text x="225" y="818" fill="#FFFFFF" font-size="28" font-family="-apple-system, BlinkMacSystemFont, 'SF Pro Text', sans-serif">实时同步中</text>

  <rect x="120" y="930" width="500" height="258" rx="42" fill="#FFFFFF"/>
  <text x="162" y="1010" fill="#6E7785" font-size="28" font-family="-apple-system, BlinkMacSystemFont, 'SF Pro Text', sans-serif">今日营收</text>
  <text x="162" y="1110" fill="#111418" font-size="82" font-family="-apple-system, BlinkMacSystemFont, 'SF Pro Display', sans-serif" font-weight="700">¥ 12,860</text>
  <text x="162" y="1168" fill="#4F8D5C" font-size="28" font-family="-apple-system, BlinkMacSystemFont, 'SF Pro Text', sans-serif">较昨日 +12.4%</text>

  <rect x="670" y="930" width="500" height="258" rx="42" fill="#FFFFFF"/>
  <text x="712" y="1010" fill="#6E7785" font-size="28" font-family="-apple-system, BlinkMacSystemFont, 'SF Pro Text', sans-serif">低库存商品</text>
  <text x="712" y="1110" fill="#111418" font-size="82" font-family="-apple-system, BlinkMacSystemFont, 'SF Pro Display', sans-serif" font-weight="700">08</text>
  <text x="712" y="1168" fill="#D06C4A" font-size="28" font-family="-apple-system, BlinkMacSystemFont, 'SF Pro Text', sans-serif">建议今日完成补货</text>

  <text x="120" y="1290" fill="#101216" font-size="48" font-family="-apple-system, BlinkMacSystemFont, 'SF Pro Display', sans-serif" font-weight="700">常用功能</text>
  <g fill="#FFFFFF">
    <rect x="120" y="1360" width="240" height="220" rx="36"/>
    <rect x="390" y="1360" width="240" height="220" rx="36"/>
    <rect x="660" y="1360" width="240" height="220" rx="36"/>
    <rect x="930" y="1360" width="240" height="220" rx="36"/>
  </g>
  <g font-family="-apple-system, BlinkMacSystemFont, 'SF Pro Text', sans-serif">
    <circle cx="200" cy="1445" r="30" fill="#EEF3FF"/>
    <text x="162" y="1535" fill="#101216" font-size="34" font-weight="600">采购下单</text>
    <text x="162" y="1585" fill="#7A8392" font-size="24">新建采购单</text>

    <circle cx="470" cy="1445" r="30" fill="#EEF3FF"/>
    <text x="432" y="1535" fill="#101216" font-size="34" font-weight="600">库存盘点</text>
    <text x="432" y="1585" fill="#7A8392" font-size="24">查看变动</text>

    <circle cx="740" cy="1445" r="30" fill="#EEF3FF"/>
    <text x="702" y="1535" fill="#101216" font-size="34" font-weight="600">门店记账</text>
    <text x="702" y="1585" fill="#7A8392" font-size="24">收入支出</text>

    <circle cx="1010" cy="1445" r="30" fill="#EEF3FF"/>
    <text x="972" y="1535" fill="#101216" font-size="34" font-weight="600">消息通知</text>
    <text x="972" y="1585" fill="#7A8392" font-size="24">钉钉同步</text>
  </g>

  <rect x="120" y="1660" width="1050" height="620" rx="44" fill="#FFFFFF"/>
  <text x="162" y="1750" fill="#101216" font-size="48" font-family="-apple-system, BlinkMacSystemFont, 'SF Pro Display', sans-serif" font-weight="700">待办重点</text>
  <g font-family="-apple-system, BlinkMacSystemFont, 'SF Pro Text', sans-serif">
    <rect x="162" y="1812" width="966" height="116" rx="28" fill="#F7F8FB"/>
    <circle cx="220" cy="1870" r="16" fill="#111418"/>
    <text x="260" y="1878" fill="#101216" font-size="32" font-weight="600">审核今日采购单</text>
    <text x="260" y="1920" fill="#7A8392" font-size="24">4 笔待确认，供应商到货时间在上午 11:00 前</text>

    <rect x="162" y="1948" width="966" height="116" rx="28" fill="#F7F8FB"/>
    <circle cx="220" cy="2006" r="16" fill="#D06C4A"/>
    <text x="260" y="2014" fill="#101216" font-size="32" font-weight="600">处理低库存预警</text>
    <text x="260" y="2056" fill="#7A8392" font-size="24">牛奶、纸杯、糖浆库存低于安全线</text>

    <rect x="162" y="2084" width="966" height="116" rx="28" fill="#F7F8FB"/>
    <circle cx="220" cy="2142" r="16" fill="#7A8AF8"/>
    <text x="260" y="2150" fill="#101216" font-size="32" font-weight="600">同步门店日报</text>
    <text x="260" y="2192" fill="#7A8392" font-size="24">20:30 自动推送到钉钉群，支持图片摘要</text>
  </g>

  <rect x="100" y="2365" width="1090" height="168" rx="48" fill="#FFFFFF" fill-opacity="0.94"/>
  <g font-family="-apple-system, BlinkMacSystemFont, 'SF Pro Text', sans-serif" font-size="24">
    <text x="182" y="2470" fill="#111418" font-weight="600">首页</text>
    <text x="430" y="2470" fill="#8B93A0">采购</text>
    <text x="650" y="2470" fill="#8B93A0">库存</text>
    <text x="875" y="2470" fill="#8B93A0">记账</text>
    <text x="1080" y="2470" fill="#8B93A0">我的</text>
  </g>
  <rect x="450" y="2620" width="390" height="14" rx="7" fill="#121316"/>
</svg>
