<svg width="1290" height="2796" viewBox="0 0 1290 2796" fill="none" xmlns="http://www.w3.org/2000/svg">
  <rect width="1290" height="2796" rx="96" fill="#F7F8FB"/>
  <rect x="35" y="35" width="1220" height="2726" rx="82" fill="none" stroke="#D7DCE5" stroke-width="10"/>
  <rect x="555" y="110" width="180" height="36" rx="18" fill="#111214"/>
  <text x="120" y="150" fill="#0F1115" font-size="42" font-family="-apple-system, BlinkMacSystemFont, 'SF Pro Display', sans-serif" font-weight="600">9:41</text>
  <text x="1050" y="150" fill="#0F1115" font-size="34" font-family="-apple-system, BlinkMacSystemFont, 'SF Pro Text', sans-serif" font-weight="600">5G   96%</text>

  <text x="120" y="300" fill="#101216" font-size="80" font-family="-apple-system, BlinkMacSystemFont, 'SF Pro Display', sans-serif" font-weight="700">采购单</text>
  <text x="120" y="368" fill="#7A8392" font-size="32" font-family="-apple-system, BlinkMacSystemFont, 'SF Pro Text', sans-serif">统一管理待审核、待到货和已完成订单</text>

  <rect x="120" y="430" width="320" height="84" rx="32" fill="#FFFFFF"/>
  <text x="168" y="484" fill="#101216" font-size="30" font-family="-apple-system, BlinkMacSystemFont, 'SF Pro Text', sans-serif">全部订单</text>
  <rect x="462" y="430" width="200" height="84" rx="32" fill="#111418"/>
  <text x="525" y="484" fill="#FFFFFF" font-size="30" font-family="-apple-system, BlinkMacSystemFont, 'SF Pro Text', sans-serif">待审核</text>
  <rect x="684" y="430" width="200" height="84" rx="32" fill="#FFFFFF"/>
  <text x="747" y="484" fill="#66707F" font-size="30" font-family="-apple-system, BlinkMacSystemFont, 'SF Pro Text', sans-serif">待到货</text>

  <rect x="910" y="430" width="260" height="84" rx="32" fill="#FFFFFF"/>
  <text x="970" y="484" fill="#66707F" font-size="30" font-family="-apple-system, BlinkMacSystemFont, 'SF Pro Text', sans-serif">筛选供应商</text>

  <rect x="120" y="580" width="1050" height="190" rx="42" fill="#111418"/>
  <text x="168" y="656" fill="#BFC9D7" font-size="28" font-family="-apple-system, BlinkMacSystemFont, 'SF Pro Text', sans-serif">本周采购</text>
  <text x="168" y="728" fill="#FFFFFF" font-size="64" font-family="-apple-system, BlinkMacSystemFont, 'SF Pro Display', sans-serif" font-weight="700">32 笔单据待处理</text>
  <text x="168" y="772" fill="#D7DDE6" font-size="28" font-family="-apple-system, BlinkMacSystemFont, 'SF Pro Text', sans-serif">优先处理已超 24 小时未审核的订单</text>

  <g font-family="-apple-system, BlinkMacSystemFont, 'SF Pro Text', sans-serif">
    <rect x="120" y="840" width="1050" height="1210" rx="44" fill="#FFFFFF"/>

    <rect x="162" y="902" width="966" height="220" rx="30" fill="#F7F8FB"/>
    <text x="206" y="976" fill="#101216" font-size="38" font-weight="600">PO-20260424-0012</text>
    <text x="206" y="1020" fill="#7A8392" font-size="24">供应商：星河食品 · 创建时间 09:12</text>
    <text x="206" y="1078" fill="#101216" font-size="28">牛奶 24 箱 / 奶油 8 箱 / 纸杯 12 包</text>
    <text x="206" y="1130" fill="#101216" font-size="28" font-weight="600">合计 ¥ 4,860</text>
    <rect x="936" y="934" width="150" height="50" rx="25" fill="#FFF0D9"/>
    <text x="984" y="967" fill="#C9852F" font-size="22">待审核</text>

    <rect x="162" y="1144" width="966" height="220" rx="30" fill="#F7F8FB"/>
    <text x="206" y="1218" fill="#101216" font-size="38" font-weight="600">PO-20260424-0011</text>
    <text x="206" y="1262" fill="#7A8392" font-size="24">供应商：京味原料 · 创建时间 08:45</text>
    <text x="206" y="1320" fill="#101216" font-size="28">咖啡豆 10 袋 / 糖浆 6 瓶 / 巧克力酱 4 瓶</text>
    <text x="206" y="1372" fill="#101216" font-size="28" font-weight="600">合计 ¥ 3,280</text>
    <rect x="936" y="1176" width="150" height="50" rx="25" fill="#FFF0D9"/>
    <text x="984" y="1209" fill="#C9852F" font-size="22">待审核</text>

    <rect x="162" y="1386" width="966" height="220" rx="30" fill="#F7F8FB"/>
    <text x="206" y="1460" fill="#101216" font-size="38" font-weight="600">PO-20260423-0089</text>
    <text x="206" y="1504" fill="#7A8392" font-size="24">供应商：优选包装 · 创建时间 昨天 17:30</text>
    <text x="206" y="1562" fill="#101216" font-size="28">杯盖 18 箱 / 纸袋 6 箱 / 吸管 10 箱</text>
    <text x="206" y="1614" fill="#101216" font-size="28" font-weight="600">合计 ¥ 5,120</text>
    <rect x="932" y="1418" width="154" height="50" rx="25" fill="#E8F4EA"/>
    <text x="976" y="1451" fill="#4E8A59" font-size="22">待到货</text>

    <rect x="162" y="1628" width="966" height="220" rx="30" fill="#F7F8FB"/>
    <text x="206" y="1702" fill="#101216" font-size="38" font-weight="600">PO-20260423-0088</text>
    <text x="206" y="1746" fill="#7A8392" font-size="24">供应商：冷链鲜配 · 创建时间 昨天 15:12</text>
    <text x="206" y="1804" fill="#101216" font-size="28">酸奶 16 箱 / 黄油 3 箱</text>
    <text x="206" y="1856" fill="#101216" font-size="28" font-weight="600">合计 ¥ 2,040</text>
    <rect x="942" y="1660" width="144" height="50" rx="25" fill="#EEF2FF"/>
    <text x="986" y="1693" fill="#6176D8" font-size="22">已完成</text>
  </g>

  <rect x="120" y="2100" width="1050" height="180" rx="40" fill="#FFFFFF"/>
  <text x="170" y="2180" fill="#101216" font-size="34" font-family="-apple-system, BlinkMacSystemFont, 'SF Pro Text', sans-serif" font-weight="600">快速新建采购单</text>
  <text x="170" y="2230" fill="#7A8392" font-size="24" font-family="-apple-system, BlinkMacSystemFont, 'SF Pro Text', sans-serif">从低库存商品自动带出推荐数量和供应商</text>
  <rect x="928" y="2145" width="182" height="64" rx="30" fill="#111418"/>
  <text x="969" y="2187" fill="#FFFFFF" font-size="26" font-family="-apple-system, BlinkMacSystemFont, 'SF Pro Text', sans-serif">新建订单</text>

  <rect x="100" y="2365" width="1090" height="168" rx="48" fill="#FFFFFF" fill-opacity="0.94"/>
  <g font-family="-apple-system, BlinkMacSystemFont, 'SF Pro Text', sans-serif" font-size="24">
    <text x="182" y="2470" fill="#8B93A0">首页</text>
    <text x="430" y="2470" fill="#111418" font-weight="600">采购</text>
    <text x="650" y="2470" fill="#8B93A0">库存</text>
    <text x="875" y="2470" fill="#8B93A0">记账</text>
    <text x="1080" y="2470" fill="#8B93A0">我的</text>
  </g>
  <rect x="450" y="2620" width="390" height="14" rx="7" fill="#121316"/>
</svg>
