<svg width="1290" height="2796" viewBox="0 0 1290 2796" fill="none" xmlns="http://www.w3.org/2000/svg">
  <defs>
    <linearGradient id="hero" x1="120" y1="430" x2="1170" y2="1040" gradientUnits="userSpaceOnUse">
      <stop stop-color="#F0F4FF"/>
      <stop offset="1" stop-color="#FFFFFF"/>
    </linearGradient>
  </defs>
  <rect width="1290" height="2796" rx="96" fill="#F5F7FA"/>
  <rect x="35" y="35" width="1220" height="2726" rx="82" fill="none" stroke="#D7DCE5" stroke-width="10"/>
  <rect x="555" y="110" width="180" height="36" rx="18" fill="#111214"/>
  <text x="120" y="150" fill="#0F1115" font-size="42" font-family="-apple-system, BlinkMacSystemFont, 'SF Pro Display', sans-serif" font-weight="600">9:41</text>
  <text x="1050" y="150" fill="#0F1115" font-size="34" font-family="-apple-system, BlinkMacSystemFont, 'SF Pro Text', sans-serif" font-weight="600">5G   96%</text>

  <text x="120" y="300" fill="#101216" font-size="80" font-family="-apple-system, BlinkMacSystemFont, 'SF Pro Display', sans-serif" font-weight="700">门店记账</text>
  <text x="120" y="368" fill="#7A8392" font-size="32" font-family="-apple-system, BlinkMacSystemFont, 'SF Pro Text', sans-serif">当天收支、渠道分布和电子回单集中展示</text>

  <rect x="120" y="430" width="1050" height="360" rx="48" fill="url(#hero)"/>
  <text x="170" y="516" fill="#6E7785" font-size="28" font-family="-apple-system, BlinkMacSystemFont, 'SF Pro Text', sans-serif">今日流水</text>
  <text x="170" y="622" fill="#101216" font-size="90" font-family="-apple-system, BlinkMacSystemFont, 'SF Pro Display', sans-serif" font-weight="700">¥ 18,420</text>
  <text x="170" y="680" fill="#4E8A59" font-size="28" font-family="-apple-system, BlinkMacSystemFont, 'SF Pro Text', sans-serif">收入占比 92% · 较昨日 +8.2%</text>

  <rect x="170" y="720" width="240" height="22" rx="11" fill="#DCE7FF"/>
  <rect x="170" y="720" width="170" height="22" rx="11" fill="#111418"/>
  <text x="434" y="738" fill="#7A8392" font-size="22" font-family="-apple-system, BlinkMacSystemFont, 'SF Pro Text', sans-serif">微信 71%</text>

  <rect x="120" y="850" width="500" height="240" rx="42" fill="#FFFFFF"/>
  <text x="162" y="930" fill="#6E7785" font-size="28" font-family="-apple-system, BlinkMacSystemFont, 'SF Pro Text', sans-serif">订单数</text>
  <text x="162" y="1024" fill="#101216" font-size="76" font-family="-apple-system, BlinkMacSystemFont, 'SF Pro Display', sans-serif" font-weight="700">136</text>

  <rect x="670" y="850" width="500" height="240" rx="42" fill="#FFFFFF"/>
  <text x="712" y="930" fill="#6E7785" font-size="28" font-family="-apple-system, BlinkMacSystemFont, 'SF Pro Text', sans-serif">客单价</text>
  <text x="712" y="1024" fill="#101216" font-size="76" font-family="-apple-system, BlinkMacSystemFont, 'SF Pro Display', sans-serif" font-weight="700">¥ 135.4</text>

  <rect x="120" y="1140" width="1050" height="910" rx="44" fill="#FFFFFF"/>
  <text x="162" y="1230" fill="#101216" font-size="48" font-family="-apple-system, BlinkMacSystemFont, 'SF Pro Display', sans-serif" font-weight="700">最近记录</text>

  <g font-family="-apple-system, BlinkMacSystemFont, 'SF Pro Text', sans-serif">
    <rect x="162" y="1292" width="966" height="150" rx="28" fill="#F7F8FB"/>
    <text x="204" y="1360" fill="#101216" font-size="36" font-weight="600">午高峰门店收款</text>
    <text x="204" y="1410" fill="#7A8392" font-size="24">微信 · 堂食 · 12:08</text>
    <text x="942" y="1374" fill="#111418" font-size="34" font-weight="600">+ ¥ 1,286</text>

    <rect x="162" y="1462" width="966" height="150" rx="28" fill="#F7F8FB"/>
    <text x="204" y="1530" fill="#101216" font-size="36" font-weight="600">门店耗材采购</text>
    <text x="204" y="1580" fill="#7A8392" font-size="24">供应商采购 · 10:30</text>
    <text x="950" y="1544" fill="#D06C4A" font-size="34" font-weight="600">- ¥ 420</text>

    <rect x="162" y="1632" width="966" height="150" rx="28" fill="#F7F8FB"/>
    <text x="204" y="1700" fill="#101216" font-size="36" font-weight="600">外卖平台到账</text>
    <text x="204" y="1750" fill="#7A8392" font-size="24">美团 / 饿了么 · 09:45</text>
    <text x="942" y="1714" fill="#111418" font-size="34" font-weight="600">+ ¥ 2,036</text>

    <rect x="162" y="1802" width="966" height="150" rx="28" fill="#F7F8FB"/>
    <text x="204" y="1870" fill="#101216" font-size="36" font-weight="600">电子回单已生成</text>
    <text x="204" y="1920" fill="#7A8392" font-size="24">支持图片通知发送到钉钉群</text>
    <rect x="954" y="1848" width="132" height="50" rx="25" fill="#EEF2FF"/>
    <text x="988" y="1881" fill="#6176D8" font-size="22">查看</text>
  </g>

  <rect x="120" y="2100" width="1050" height="180" rx="40" fill="#111418"/>
  <text x="170" y="2180" fill="#FFFFFF" font-size="34" font-family="-apple-system, BlinkMacSystemFont, 'SF Pro Text', sans-serif" font-weight="600">创建新记账</text>
  <text x="170" y="2230" fill="#D7DDE6" font-size="24" font-family="-apple-system, BlinkMacSystemFont, 'SF Pro Text', sans-serif">支持一单多商品、渠道分类与标签记录</text>
  <circle cx="1060" cy="2190" r="32" fill="#FFFFFF"/>
  <text x="1046" y="2202" fill="#111418" font-size="42" font-family="-apple-system, BlinkMacSystemFont, 'SF Pro Display', sans-serif" font-weight="600">+</text>

  <rect x="100" y="2365" width="1090" height="168" rx="48" fill="#FFFFFF" fill-opacity="0.94"/>
  <g font-family="-apple-system, BlinkMacSystemFont, 'SF Pro Text', sans-serif" font-size="24">
    <text x="182" y="2470" fill="#8B93A0">首页</text>
    <text x="430" y="2470" fill="#8B93A0">采购</text>
    <text x="650" y="2470" fill="#8B93A0">库存</text>
    <text x="875" y="2470" fill="#111418" font-weight="600">记账</text>
    <text x="1080" y="2470" fill="#8B93A0">我的</text>
  </g>
  <rect x="450" y="2620" width="390" height="14" rx="7" fill="#121316"/>
</svg>
